<svg width="375" height="375" viewBox="0 0 375 375" fill="none" xmlns="http://www.w3.org/2000/svg">
<g opacity="0.1">
<path d="M239.943 349.341C205.722 360.46 168.858 360.46 134.636 349.341C100.415 338.222 70.5914 316.554 49.4411 287.443C28.2909 258.332 16.8994 223.273 16.8994 187.29C16.8994 151.307 28.2909 116.248 49.4411 87.1371C70.5913 58.0263 100.415 36.3585 134.636 25.2392C168.858 14.1198 205.722 14.1198 239.943 25.2392C274.165 36.3585 303.988 58.0263 325.139 87.1371C346.289 116.248 357.68 151.307 357.68 187.29" stroke="#60E1CB" stroke-width="4"/>
<path d="M215.38 55.1367C243.288 61.0687 268.602 75.6836 287.693 96.8867C306.784 118.09 318.673 144.792 321.656 173.168C324.638 201.543 318.561 230.134 304.295 254.843C290.029 279.552 268.307 299.111 242.242 310.715C216.178 322.32 187.108 325.376 159.2 319.443C131.292 313.511 105.978 298.897 86.8868 277.694C67.7954 256.49 55.9066 229.788 52.9243 201.412C49.9419 173.037 56.0191 144.446 70.2849 119.737" stroke="#60E1CB" stroke-width="4"/>
<path d="M120.114 261.896C104.359 247.71 93.4993 228.901 89.0914 208.163C84.6835 187.426 86.9539 165.825 95.577 146.457C104.2 127.089 118.733 110.948 137.094 100.348C155.454 89.7477 176.699 85.232 197.784 87.4481C218.868 89.6641 238.71 98.4983 254.465 112.684C270.221 126.87 281.08 145.68 285.488 166.418C289.896 187.155 287.626 208.756 279.003 228.124C270.38 247.491 255.846 263.632 237.486 274.233" stroke="#60E1CB" stroke-width="4"/>
</g>
</svg>
