<svg width="762" height="762" viewBox="0 0 762 762" fill="none" xmlns="http://www.w3.org/2000/svg">
<g opacity="0.2">
<path d="M488.502 712.26C418.506 735.003 343.106 735.003 273.11 712.26C203.114 689.517 142.114 645.198 98.8542 585.656C55.5942 526.114 32.2944 454.405 32.2944 380.806C32.2944 307.208 55.5941 235.499 98.8542 175.956C142.114 116.414 203.114 72.0952 273.11 49.3521C343.106 26.6089 418.506 26.6089 488.502 49.352C558.498 72.0952 619.498 116.414 662.758 175.956C706.018 235.499 729.317 307.208 729.317 380.806" stroke="#60E1CB" stroke-width="4"/>
<path d="M438.349 110.085C495.52 122.237 547.376 152.176 586.485 195.611C625.595 239.046 649.949 293.748 656.059 351.875C662.168 410.003 649.719 468.573 620.495 519.19C591.271 569.808 546.773 609.874 493.378 633.647C439.983 657.42 380.433 663.679 323.262 651.527C266.091 639.375 214.235 609.436 175.126 566.001C136.017 522.565 111.662 467.864 105.553 409.736C99.4432 351.608 111.893 293.039 141.117 242.421" stroke="#60E1CB" stroke-width="4"/>
<path d="M242.839 534.034C210.481 504.898 188.176 466.266 179.123 423.675C170.07 381.084 174.733 336.72 192.444 296.942C210.154 257.164 240.003 224.013 277.712 202.242C315.421 180.471 359.054 171.196 402.358 175.747C445.663 180.299 486.414 198.443 518.773 227.578C551.131 256.714 573.435 295.346 582.488 337.937C591.541 380.528 586.879 424.892 569.168 464.671C551.458 504.449 521.609 537.599 483.9 559.37" stroke="#60E1CB" stroke-width="4"/>
</g>
</svg>
